<svg width="511" height="512" viewBox="0 0 511 512" fill="none" xmlns="http://www.w3.org/2000/svg">
<rect width="511" height="512" rx="15" fill="#252525"/>
<path d="M0 468.11V495.051H127.603V468.11C127.603 449.734 119.862 433.172 107.472 421.511C95.5281 432.518 80.1282 438.55 63.8017 438.55C47.4746 438.55 32.0752 432.518 20.1309 421.511C7.74122 433.172 0 449.734 0 468.11Z" fill="#318CC6"/>
<path d="M191.698 468.11V495.051H319.301V468.11C319.301 449.734 311.56 433.172 299.171 421.511C287.226 432.518 271.826 438.55 255.5 438.55C239.173 438.55 223.773 432.518 211.829 421.511C199.439 433.172 191.698 449.734 191.698 468.11Z" fill="#7A4BBC"/>
<path d="M490.869 421.511C478.925 432.518 463.525 438.55 447.198 438.55C430.871 438.55 415.472 432.518 403.528 421.511C391.138 433.172 383.397 449.734 383.397 468.11V495.051H511V468.11C511 449.734 503.259 433.172 490.869 421.511Z" fill="#B22121"/>
<path d="M0 17.2604V317.299C49.4197 306.337 145.048 298.907 254.918 298.907C365.656 298.907 461.927 306.455 510.999 317.559V17C461.927 28.1045 365.656 35.6523 254.918 35.6523C145.048 35.6523 49.4197 28.2227 0 17.2604Z" fill="#7D7D7D"/>
<path d="M37.8253 409.708C45.1207 415.021 54.0926 418.163 63.8017 418.163C73.5108 418.163 82.4827 415.021 89.778 409.708C100.84 401.651 108.039 388.59 108.039 373.839C108.039 349.359 88.2334 329.515 63.8017 329.515C39.37 329.515 19.5641 349.359 19.5641 373.839C19.5641 388.59 26.7623 401.651 37.8253 409.708Z" fill="#318CC6"/>
<path d="M229.523 409.708C236.819 415.021 245.791 418.163 255.5 418.163C265.209 418.163 274.181 415.021 281.476 409.708C292.538 401.651 299.737 388.59 299.737 373.839C299.737 349.359 279.931 329.515 255.499 329.515C231.067 329.515 211.262 349.359 211.262 373.839C211.262 388.59 218.46 401.651 229.523 409.708Z" fill="#7A4BBC"/>
<path d="M421.221 409.708C428.517 415.021 437.489 418.163 447.198 418.163C456.907 418.163 465.879 415.021 473.174 409.708C484.237 401.651 491.435 388.59 491.435 373.839C491.435 349.359 471.629 329.515 447.197 329.515C422.765 329.515 402.959 349.359 402.959 373.839C402.96 388.59 410.159 401.651 421.221 409.708Z" fill="#B32121"/>
</svg>
